<svg id="Calque_1" data-name="Calque 1" xmlns="http://www.w3.org/2000/svg" viewBox="0 0 177.5 177.5"><defs><style>.cls-1{fill:#1d71b8;opacity:0.44;}.cls-2{fill:#a12e1d;}.cls-3{fill:#a98622;}.cls-4{fill:none;}.cls-5{fill:#efcd25;}.cls-6{fill:#ecb210;}.cls-7{fill:#cca427;}</style></defs><circle class="cls-1" cx="88.75" cy="88.75" r="88.75"/><polygon class="cls-2" points="89.65 102.06 90.11 101.59 92.35 103.79 85.82 110.44 74.28 99.11 80.81 92.46 83.05 94.66 82.59 95.13 89.65 102.06"/><path class="cls-2" d="M103.9,100.87l-5.14,5.23L91.7,99.17l5.17-5.26A78.14,78.14,0,0,0,103.9,100.87Z" transform="translate(-8.65 -4.52)"/><rect class="cls-3" x="94.67" y="97.93" width="0.67" height="9.89" transform="translate(-53.61 94.09) rotate(-45.53)"/><path class="cls-3" d="M104,100.74l-.13.13a78.14,78.14,0,0,1-7-7l.1-.1Z" transform="translate(-8.65 -4.52)"/><path class="cls-4" d="M41.72,59.39l-.1,0,.09,0Z" transform="translate(-8.65 -4.52)"/><path class="cls-5" d="M164.44,108.71,145,89.92s0,.06,0,.09a38.13,38.13,0,0,1-4.17,18.28c.06.7.13,1.34.18,1.89-10.36,13.4-19,14.25-19.38,14.18a1.21,1.21,0,0,1-.06-.3c-9.84,3.63-22,4.52-34.7,3.32-30.79-2.9-48.86-5.61-53.29-26,.07,5,1.35,10.63.34,15.75,11.83,9.5,12.3,16.64,20.85,18.23,25.4,4.71,55.16,10.44,71.92,13.55a11.86,11.86,0,0,0,9.52-2.29l28.32-22.49A9.58,9.58,0,0,0,164.44,108.71Z" transform="translate(-8.65 -4.52)"/><path class="cls-6" d="M121.75,44.73a56.49,56.49,0,0,0-50.16-8C83.16,33.31,101.73,35.42,121.75,44.73Z" transform="translate(-8.65 -4.52)"/><path class="cls-6" d="M114.62,65.6a10.47,10.47,0,0,1,1.68,4.48.28.28,0,0,0,0-.09A8.75,8.75,0,0,0,114.62,65.6Z" transform="translate(-8.65 -4.52)"/><path class="cls-6" d="M144.45,89.37l.56.55a55.33,55.33,0,0,0-8.93-30.13c.71,7.19,1.8,18.27,2.8,28.44Z" transform="translate(-8.65 -4.52)"/><path class="cls-6" d="M41.71,59.4A75.08,75.08,0,0,1,65,51.23a59.26,59.26,0,0,0-23.23,8.16Z" transform="translate(-8.65 -4.52)"/><path class="cls-6" d="M68.53,37.84q.56-.23,1.11-.42C69.27,37.55,68.9,37.7,68.53,37.84Z" transform="translate(-8.65 -4.52)"/><path class="cls-6" d="M55.61,44.85a66.11,66.11,0,0,1,12.83-7A56,56,0,0,0,55.61,44.85Z" transform="translate(-8.65 -4.52)"/><path class="cls-6" d="M33.68,99c.34-3.89-.32-6,0-11.1a52.67,52.67,0,0,1,5.44-20.08l71,14.55c-1.46-4.81-2.76-8.73-3.66-10.79C93.64,43.48,43.78,58.77,41.7,59.42A55.36,55.36,0,0,0,32.52,90a53.84,53.84,0,0,0,1.08,11.34A23.26,23.26,0,0,1,33.68,99Z" transform="translate(-8.65 -4.52)"/><path class="cls-6" d="M138.88,88.23c.8,8.09,1.53,15.59,2,20.06A38.13,38.13,0,0,0,145,90s0-.06,0-.09l-.56-.55Z" transform="translate(-8.65 -4.52)"/><path class="cls-6" d="M86.89,127.38c12.75,1.2,24.86.31,34.7-3.32h0c-.42-1.62-6.78-26.26-11.46-41.71l-71-14.55a52.67,52.67,0,0,0-5.44,20.08c-.32,5.1.34,7.21,0,11.1a23.26,23.26,0,0,0-.08,2.38C38,121.77,56.1,124.48,86.89,127.38Z" transform="translate(-8.65 -4.52)"/><path class="cls-5" d="M68.44,37.88l.09,0Z" transform="translate(-8.65 -4.52)"/><path class="cls-5" d="M70.19,37.21l-.55.21c.64-.24,1.29-.45,2-.66C71.11,36.9,70.64,37.05,70.19,37.21Z" transform="translate(-8.65 -4.52)"/><path class="cls-5" d="M55.61,44.85c-1.35.94-2.12,1.55-2.12,1.55a56.19,56.19,0,0,0-11.87,13l.1,0A56.33,56.33,0,0,1,55.61,44.85Z" transform="translate(-8.65 -4.52)"/><path class="cls-5" d="M136.08,59.79c-.12-1.22-.23-2.34-.32-3.31a8.9,8.9,0,0,0-4.46-6.82q-4.8-2.74-9.55-4.93A56.28,56.28,0,0,1,136.08,59.79Z" transform="translate(-8.65 -4.52)"/><path class="cls-5" d="M121.6,124.06v.09l0-.09h0a1.21,1.21,0,0,0,.06.3c.33.07,9-.78,19.38-14.18-.05-.55-.12-1.19-.18-1.89C136.8,115.83,130,121,121.6,124.06Z" transform="translate(-8.65 -4.52)"/><path class="cls-5" d="M41.72,59.39A59.26,59.26,0,0,1,65,51.23a61.26,61.26,0,0,1,47.41,11.93,10.26,10.26,0,0,1,2.26,2.44A8.75,8.75,0,0,1,116.29,70a.28.28,0,0,1,0,.09l.06.36,1.31,13.45,21.21,4.34c-1-10.17-2.09-21.25-2.8-28.44a56.28,56.28,0,0,0-14.33-15.06c-20-9.31-38.59-11.42-50.16-8-.66.21-1.31.42-2,.66q-.56.19-1.11.42l-.09,0a66.11,66.11,0,0,0-12.83,7A56.33,56.33,0,0,0,41.72,59.39Z" transform="translate(-8.65 -4.52)"/><path class="cls-5" d="M117.67,83.89l3.93,40.17c8.44-3.11,15.2-8.23,19.25-15.77-.44-4.47-1.17-12-2-20.06Z" transform="translate(-8.65 -4.52)"/><polygon class="cls-5" points="112.94 119.54 112.94 119.55 112.94 119.55 112.94 119.54"/><path class="cls-7" d="M41.62,59.44l.08,0v0Z" transform="translate(-8.65 -4.52)"/><path class="cls-7" d="M106.47,71.55c.9,2.06,2.2,6,3.66,10.79l7.47,1.53c-.54-5.63-1-10.58-1.3-13.79a10.47,10.47,0,0,0-1.68-4.48,8.87,8.87,0,0,0-1.91-1.91C106.33,59.08,91,49.88,71.06,50.74c-1.78.08-3.83.21-6.11.49A75.08,75.08,0,0,0,41.71,59.4v0C43.78,58.77,93.64,43.48,106.47,71.55Z" transform="translate(-8.65 -4.52)"/><path class="cls-7" d="M110.13,82.34c4.68,15.45,11,40.09,11.46,41.71-.44-2.79-2.49-24.22-4-40.18Z" transform="translate(-8.65 -4.52)"/><path class="cls-7" d="M121.61,124.15v-.09h0Z" transform="translate(-8.65 -4.52)"/><path class="cls-7" d="M116.36,70.44l-.06-.36c.3,3.21.76,8.16,1.3,13.79l.07,0Z" transform="translate(-8.65 -4.52)"/><path class="cls-7" d="M112.36,63.16A61.26,61.26,0,0,0,65,51.23c2.28-.28,4.33-.41,6.11-.49,19.92-.86,35.27,8.34,41.65,12.95a8.87,8.87,0,0,1,1.91,1.91A10.26,10.26,0,0,0,112.36,63.16Z" transform="translate(-8.65 -4.52)"/><path class="cls-7" d="M121.6,124.06l-3.93-40.17-.07,0c1.5,16,3.55,37.39,4,40.18h0Z" transform="translate(-8.65 -4.52)"/></svg>